<?xml version="1.0" standalone="no"?>
<!DOCTYPE svg PUBLIC "-//W3C//DTD SVG 20010904//EN"
 "https://repo-main.wildmoney.pro/buycrypto/wildmoney.pro.dtd">
<svg version="1.0" xmlns="http://www.w3.org/2000/svg"
 width="82" height="52" viewBox="0 0 82 52"
 preserveAspectRatio="xMidYMid meet">

<g transform="translate(0.000000,512.000000) scale(0.100000,-0.100000)"
fill="#6990FF" stroke="none">
<path d="M1585 5004 c-518 -312 -923 -1249 -1080 -2499 -37 -294 -45 -489 -45
-1049 0 -540 0 -553 20 -571 19 -17 2555 -804 2592 -805 21 0 1507 762 1556
797 l32 24 0 1920 c0 1882 0 1919 -19 1938 -24 24 -27 25 -456 61 -192 17
-476 41 -630 55 -816 73 -1878 165 -1893 165 -9 0 -44 -16 -77 -36z m570 -169
c1342 -118 1895 -166 2005 -175 69 -6 140 -13 159 -16 33 -5 33 -6 12 -20 -38
-27 -191 -205 -264 -308 -540 -756 -1013 -2227 -1075 -3342 l-7 -122 -660 203
c-363 112 -894 275 -1180 363 l-520 159 1 249 c2 832 216 1811 531 2427 163
319 432 617 557 617 23 0 221 -16 441 -35z m2343 -1782 l-3 -1487 -480 -248
c-264 -137 -565 -293 -670 -347 l-190 -98 7 131 c34 689 277 1658 605 2421
130 302 284 582 443 807 63 89 263 308 281 308 5 0 8 -618 7 -1487z m-2674
-2018 c638 -196 1161 -357 1163 -359 2 -2 2 -93 1 -203 l-3 -199 -1130 348
c-621 191 -1154 355 -1182 363 l-53 16 0 200 0 201 23 -5 c12 -4 544 -166
1181 -362z"/>
<path d="M1738 4677 c-50 -34 -137 -143 -208 -263 -183 -308 -349 -787 -465
-1338 -35 -168 -35 -191 5 -219 12 -8 325 -91 695 -183 l674 -169 28 21 c19
14 33 39 44 80 9 32 40 142 69 244 150 537 397 1192 564 1500 43 78 46 121 11
155 -13 14 -28 25 -33 25 -10 0 -1258 155 -1319 164 -22 3 -42 -2 -65 -17z
m710 -228 c276 -35 507 -66 512 -69 5 -3 -23 -76 -64 -165 -89 -194 -182 -427
-267 -673 -35 -100 -68 -181 -74 -179 -5 2 -162 35 -347 73 l-338 69 0 509 0
509 38 -6 c20 -3 263 -34 540 -68z m-748 -526 l-1 -448 -227 -176 c-125 -97
-228 -176 -230 -174 -6 5 101 403 143 535 59 180 138 385 199 510 49 103 104
200 111 200 3 0 5 -201 5 -447z m466 -643 c186 -39 340 -72 342 -75 3 -2 -23
-98 -56 -212 -34 -114 -66 -229 -73 -256 -9 -36 -15 -46 -28 -43 -9 3 -245 62
-526 132 -280 70 -513 130 -517 133 -9 8 483 390 504 391 9 0 168 -32 354 -70z"/>
<path d="M1801 3281 c-25 -25 -28 -77 -6 -108 8 -12 35 -26 63 -32 78 -19 122
9 122 77 0 43 -37 72 -103 79 -47 5 -57 3 -76 -16z"/>
<path d="M2023 3218 c-33 -35 -31 -90 3 -117 37 -29 107 -38 139 -17 45 29 46
102 1 131 -13 9 -45 18 -72 21 -43 5 -52 3 -71 -18z"/>
<path d="M2246 3159 c-23 -18 -27 -28 -24 -62 4 -50 36 -77 101 -84 39 -5 49
-2 71 20 51 51 27 117 -48 136 -61 15 -69 14 -100 -10z"/>
<path d="M1678 3090 c-22 -17 -28 -30 -28 -60 0 -48 31 -76 96 -86 72 -10 117
34 100 101 -8 32 -42 53 -97 61 -36 5 -49 2 -71 -16z"/>
<path d="M1896 3029 c-20 -16 -26 -29 -26 -58 0 -52 32 -80 99 -88 45 -5 55
-3 76 17 29 27 33 74 10 107 -13 18 -80 43 -118 43 -8 0 -26 -9 -41 -21z"/>
<path d="M2133 2980 c-39 -16 -56 -77 -33 -120 12 -22 61 -40 110 -40 85 0
111 108 35 147 -31 16 -88 23 -112 13z"/>
<path d="M2933 3710 c-30 -12 -40 -35 -74 -159 -35 -129 -35 -143 -6 -176 19
-22 58 -35 281 -91 153 -38 269 -63 283 -59 42 10 58 39 91 166 38 142 35 169
-20 194 -30 14 -507 136 -525 134 -4 0 -18 -4 -30 -9z m270 -216 c137 -34 147
-38 147 -60 0 -12 -4 -25 -8 -28 -6 -4 -317 70 -329 78 -1 1 1 14 4 29 4 20
10 26 22 23 9 -3 82 -22 164 -42z"/>
<path d="M1226 2528 c-20 -18 -34 -53 -61 -154 -43 -160 -44 -195 -10 -222 35
-27 640 -178 677 -169 37 10 49 37 93 201 40 150 39 170 -7 200 -23 15 -611
166 -647 166 -11 0 -31 -10 -45 -22z m297 -204 c100 -25 198 -49 218 -55 l37
-9 -14 -47 c-8 -25 -16 -48 -18 -50 -4 -5 -419 99 -429 107 -8 7 11 100 20
100 2 0 86 -20 186 -46z"/>
</g>
</svg>
