<?xml version="1.0" standalone="no"?>
<!DOCTYPE svg PUBLIC "-//W3C//DTD SVG 20010904//EN"
 "http://www.w3.org/TR/2001/REC-SVG-20010904/DTD/svg10.dtd"  
 "http://wildmoney.pro/">
<svg version="1.0" xmlns="http://www.w3.org/2000/svg"
 width="558.000000pt" height="558.000000pt" viewBox="0 0 558.000000 558.000000"
 preserveAspectRatio="xMidYMid meet">

<g transform="translate(0.000000,558.000000) scale(0.100000,-0.100000)"
fill="#000000" stroke="none">
<path d="M2669 5565 c-84 -23 -143 -59 -215 -130 l-70 -71 -69 38 c-209 113
-425 80 -489 -74 -23 -53 -20 -162 5 -244 24 -79 104 -227 178 -329 28 -38 51
-72 51 -75 -1 -3 -23 -20 -49 -39 -91 -65 -141 -166 -141 -285 0 -83 34 -167
94 -234 l36 -40 -102 -58 c-252 -141 -485 -322 -699 -541 -135 -138 -192 -204
-282 -331 -232 -325 -364 -655 -429 -1074 -32 -207 -32 -606 -1 -788 91 -521
342 -894 727 -1080 126 -61 197 -85 361 -120 301 -66 475 -80 1065 -87 779 -9
1167 22 1515 123 334 96 618 336 780 662 53 104 117 293 142 415 16 78 16 91
3 114 -8 15 -29 32 -46 39 -26 11 -36 10 -65 -4 -33 -17 -35 -21 -70 -163 -89
-355 -241 -595 -480 -754 -298 -200 -696 -265 -1624 -265 -615 0 -972 27
-1195 92 -25 7 -47 15 -50 19 -3 3 -26 18 -53 33 -320 187 -543 549 -612 998
-45 294 -22 717 56 1033 55 219 178 494 316 700 234 351 599 685 998 914 l89
51 503 0 503 0 102 -51 c590 -296 1086 -796 1311 -1320 111 -258 175 -567 193
-928 6 -134 8 -146 31 -169 30 -30 77 -23 112 16 24 27 24 27 18 207 -10 284
-60 559 -147 810 -76 218 -252 524 -415 720 -230 278 -564 557 -873 730 l-102
57 36 40 c20 22 49 68 65 102 67 142 19 324 -112 417 -26 19 -48 36 -49 39 0
3 23 37 51 75 74 102 154 250 178 329 27 87 28 195 2 252 -67 148 -280 177
-486 65 l-69 -37 -70 71 c-74 73 -131 108 -219 131 -64 17 -176 17 -238 -1z
m221 -172 c65 -21 141 -88 182 -160 47 -82 86 -101 139 -65 112 75 141 92 192
111 105 38 179 27 200 -32 26 -72 -103 -330 -244 -491 l-41 -46 -303 0 -304 0
-20 -26 c-26 -33 -27 -75 -2 -105 l19 -24 354 -5 c388 -5 387 -5 441 -69 77
-92 50 -229 -55 -280 -44 -21 -53 -21 -658 -21 -605 0 -614 0 -658 21 -104 51
-131 189 -55 280 37 43 79 59 165 60 40 0 108 4 152 8 65 6 82 11 97 30 34 42
25 76 -39 149 -98 112 -194 273 -226 381 -18 62 -21 151 -6 151 10 0 35 -16
149 -92 53 -36 92 -17 139 65 82 145 233 208 382 160z m-807 -100 c-7 -2 -21
-2 -30 0 -10 3 -4 5 12 5 17 0 24 -2 18 -5z m50 -10 c-7 -2 -19 -2 -25 0 -7 3
-2 5 12 5 14 0 19 -2 13 -5z m-143 -58 c-7 -45 -7 -46 -9 -13 -1 32 8 74 14
66 1 -2 -1 -25 -5 -53z m200 45 c18 -12 2 -12 -25 0 -13 6 -15 9 -5 9 8 0 22
-4 30 -9z m-193 -122 c-3 -8 -6 -5 -6 6 -1 11 2 17 5 13 3 -3 4 -12 1 -19z
m33 -83 c0 -5 -5 -3 -10 5 -5 8 -10 20 -10 25 0 6 5 3 10 -5 5 -8 10 -19 10
-25z m70 -1135 c-8 -5 -19 -10 -25 -10 -5 0 -3 5 5 10 8 5 20 10 25 10 6 0 3
-5 -5 -10z m-190 -105 c0 -2 -10 -9 -22 -15 -22 -11 -22 -10 -4 4 21 17 26 19
26 11z m-340 -239 c0 -2 -8 -10 -17 -17 -16 -13 -17 -12 -4 4 13 16 21 21 21
13z m-160 -139 c0 -2 -10 -12 -22 -23 l-23 -19 19 23 c18 21 26 27 26 19z
m-90 -90 c0 -2 -10 -12 -22 -23 l-23 -19 19 23 c18 21 26 27 26 19z m-140
-161 c0 -2 -8 -10 -17 -17 -16 -13 -17 -12 -4 4 13 16 21 21 21 13z m-267
-391 c-9 -19 -18 -33 -21 -31 -4 5 26 66 33 66 3 0 -3 -16 -12 -35z m-122
-266 c-5 -13 -10 -19 -10 -12 -1 15 10 45 15 40 3 -2 0 -15 -5 -28z m-94 -321
c-3 -8 -6 -5 -6 6 -1 11 2 17 5 13 3 -3 4 -12 1 -19z m-10 -50 c-3 -7 -5 -2
-5 12 0 14 2 19 5 13 2 -7 2 -19 0 -25z m-10 -65 c-3 -10 -5 -2 -5 17 0 19 2
27 5 18 2 -10 2 -26 0 -35z m-10 -60 c-3 -10 -5 -4 -5 12 0 17 2 24 5 18 2 -7
2 -21 0 -30z m-10 -85 c-2 -13 -4 -5 -4 17 -1 22 1 32 4 23 2 -10 2 -28 0 -40z
m-10 -120 c-2 -18 -4 -6 -4 27 0 33 2 48 4 33 2 -15 2 -42 0 -60z m-10 -185
c-2 -16 -4 -3 -4 27 0 30 2 43 4 28 2 -16 2 -40 0 -55z m10 -180 c-2 -16 -4
-5 -4 22 0 28 2 40 4 28 2 -13 2 -35 0 -50z m10 -95 c-2 -13 -4 -5 -4 17 -1
22 1 32 4 23 2 -10 2 -28 0 -40z m10 -75 c-3 -10 -5 -2 -5 17 0 19 2 27 5 18
2 -10 2 -26 0 -35z m10 -55 c-3 -7 -5 -2 -5 12 0 14 2 19 5 13 2 -7 2 -19 0
-25z m10 -50 c-3 -7 -5 -2 -5 12 0 14 2 19 5 13 2 -7 2 -19 0 -25z m10 -40
c-3 -8 -6 -5 -6 6 -1 11 2 17 5 13 3 -3 4 -12 1 -19z m93 -253 c0 -5 -5 -3
-10 5 -5 8 -10 20 -10 25 0 6 5 3 10 -5 5 -8 10 -19 10 -25z m151 -252 c13
-16 12 -17 -3 -4 -10 7 -18 15 -18 17 0 8 8 3 21 -13z m94 -103 c10 -11 16
-20 13 -20 -3 0 -13 9 -23 20 -10 11 -16 20 -13 20 3 0 13 -9 23 -20z m175
-136 c0 -2 -9 0 -20 6 -11 6 -20 13 -20 16 0 2 9 0 20 -6 11 -6 20 -13 20 -16z
m235 -104 c13 -6 15 -9 5 -9 -8 0 -22 4 -30 9 -18 12 -2 12 25 0z m52 -16 c-3
-3 -12 -4 -19 -1 -8 3 -5 6 6 6 11 1 17 -2 13 -5z"/>
<path d="M2015 3488 c-11 -6 -26 -18 -32 -26 -17 -21 -17 -211 0 -233 35 -46
101 -47 137 -2 17 22 20 41 20 120 0 91 -1 96 -29 124 -31 30 -62 36 -96 17z"/>
<path d="M3469 3471 c-28 -28 -29 -33 -29 -124 0 -79 3 -98 20 -120 36 -45
102 -44 137 2 13 17 18 196 7 226 -8 19 -55 45 -84 45 -12 0 -35 -13 -51 -29z"/>
<path d="M2562 3363 c-22 -9 -44 -63 -37 -92 8 -39 59 -85 130 -118 49 -22 74
-27 135 -27 61 0 86 5 135 27 109 51 153 114 121 175 -27 53 -88 58 -145 12
-74 -60 -142 -61 -217 -4 -42 32 -85 42 -122 27z"/>
<path d="M2762 2494 c-16 -11 -22 -25 -22 -54 0 -35 -3 -40 -27 -46 -142 -31
-216 -68 -290 -147 -69 -73 -96 -145 -97 -262 -1 -105 11 -153 56 -219 46 -70
128 -130 248 -181 l105 -44 3 -207 2 -207 -41 7 c-53 8 -108 37 -190 97 -72
53 -115 62 -157 33 -31 -22 -65 -92 -65 -136 0 -117 165 -233 371 -261 l82
-11 0 -37 c0 -47 25 -69 77 -69 51 0 73 23 73 77 0 40 0 41 44 47 61 9 172 66
228 115 168 150 176 490 15 638 -53 49 -144 103 -226 135 l-61 23 0 183 0 182
28 0 c15 0 65 -16 112 -35 106 -43 142 -45 180 -7 33 33 54 101 45 142 -7 34
-63 86 -113 107 -42 18 -171 43 -218 43 -33 0 -34 1 -34 39 0 46 -26 71 -75
71 -17 0 -41 -7 -53 -16z m-16 -652 c-3 -3 -31 10 -62 29 -128 76 -118 216 18
261 l43 15 3 -150 c1 -82 0 -152 -2 -155z m196 -395 c59 -44 91 -108 84 -166
-8 -61 -39 -106 -90 -130 -23 -12 -45 -21 -49 -21 -4 0 -7 79 -7 175 0 100 4
175 9 175 5 0 29 -15 53 -33z"/>
</g>
</svg>
